<svg width="46" height="30" viewBox="0 0 46 30" fill="none" xmlns="http://www.w3.org/2000/svg">
<path shape-rendering="geometricPrecision" d="M31.7149 0.0177001C31.6765 0.00737464 31.6382 0 31.5954 0H0.428607C0.139493 0 -0.0640665 0.280264 0.0185375 0.553152C0.0229627 0.569378 0.0303403 0.585604 0.0391907 0.600355L15.9788 29.4468C16.1101 29.6843 16.4538 29.6829 16.5806 29.4424L19.2476 24.4478C21.975 27.8523 26.1775 30 30.9773 30C39.3882 30 45.9759 23.4109 45.9759 15.0015C45.9773 6.83548 39.7702 0.389418 31.7149 0.0177001ZM30.9788 26.1633C26.7837 26.1633 23.2008 23.9596 21.2905 20.6244L30.2457 3.85879C30.4876 3.84404 30.7325 3.83371 30.9788 3.83371C37.239 3.83371 42.1436 8.73832 42.1436 14.9985C42.1436 21.2587 37.239 26.1633 30.9788 26.1633Z" fill="#0D0D0D"/>
</svg>
